<svg xmlns="http://www.w3.org/2000/svg" version="1.1" xmlns:xlink="http://www.w3.org/1999/xlink" xmlns:svgjs="http://svgjs.dev/svgjs" width="1000" height="750" viewBox="0 0 1000 750"><rect width="1000" height="750" fill="#ffffff"></rect><g transform="matrix(0.834,0,0,0.834,82.49454545454546,115.4193570850203)"><svg viewBox="0 0 396 247" data-background-color="#ffffff" preserveAspectRatio="xMidYMid meet" height="623" width="1000" xmlns="http://www.w3.org/2000/svg" xmlns:xlink="http://www.w3.org/1999/xlink"><g id="tight-bounds" transform="matrix(1,0,0,1,0.2400000000000091,-0.09999999999999432)"><svg viewBox="0 0 395.52 247.2" height="247.2" width="395.52"><g><svg></svg></g><g><svg viewBox="0 0 395.52 247.2" height="247.2" width="395.52"><g transform="matrix(1,0,0,1,75.54432,81.26039202216066)"><svg viewBox="0 0 244.43135999999998 84.67921595567867" height="84.67921595567867" width="244.43135999999998"><g><svg viewBox="0 0 244.43135999999998 84.67921595567867" height="84.67921595567867" width="244.43135999999998"><g><svg viewBox="0 0 244.43135999999998 84.67921595567867" height="84.67921595567867" width="244.43135999999998"><g><svg viewBox="0 0 244.43135999999998 84.67921595567867" height="84.67921595567867" width="244.43135999999998"><g><svg viewBox="0 0 244.43135999999998 84.67921595567867" height="84.67921595567867" width="244.43135999999998"><g><svg viewBox="0 0 244.43135999999998 84.67921595567867" height="84.67921595567867" width="244.43135999999998"><g transform="matrix(1,0,0,1,0,0)"><svg width="244.43135999999998" viewBox="4.440000057220459 -35.77000045776367 141.00999450683594 48.86000061035156" height="84.67921595567867" data-palette-color="#0718c4"><path d="M27.08 0L4.44 0 4.44-35.77 27.78-35.77 26.83-30.44 13.06-30.44 13.06-20.95 25.07-20.95 24.19-15.99 13.06-15.99 13.06-5.32 28.03-5.32 27.08 0ZM34.67-17.19L51.41-17.19 51.41-11.69 34.67-11.69 34.67-17.19ZM80.59 0L59.52 0 59.52-35.77 68.13-35.77 68.13-5.32 81.54-5.32 80.59 0ZM102.31-3.74L102.31-3.74Q101.58-3.13 100.65-2.39 99.72-1.66 98.63-1.01 97.53-0.37 96.28 0.06 95.04 0.49 93.64 0.49L93.64 0.49Q91.96 0.49 90.69-0.16 89.42-0.81 88.58-1.86 87.74-2.91 87.31-4.22 86.88-5.54 86.88-6.86L86.88-6.86Q86.88-8.67 87.7-10.25 88.52-11.84 90.25-13.02 91.98-14.21 94.67-14.89 97.36-15.58 101.07-15.58L101.07-15.58 102.02-15.58 102.02-17.09Q102.02-19.07 100.8-20.09 99.58-21.12 97.53-21.12L97.53-21.12Q96.62-21.12 95.63-20.9 94.65-20.68 93.64-20.3 92.64-19.92 91.69-19.41 90.74-18.9 89.91-18.31L89.91-18.31 89.47-18.55 88.03-23.71Q91.18-25.17 93.99-25.77 96.79-26.37 99.5-26.37L99.5-26.37Q101.82-26.37 103.84-25.93 105.85-25.49 107.33-24.5 108.81-23.51 109.66-21.92 110.51-20.34 110.51-18.02L110.51-18.02 110.51-7.62Q110.51-7.18 110.59-6.75 110.66-6.32 110.86-5.98 111.05-5.64 111.39-5.42 111.74-5.2 112.27-5.2L112.27-5.2Q112.61-5.2 112.94-5.25 113.27-5.3 113.69-5.47L113.69-5.47 113.69-1.86Q112.1-0.76 110.51-0.13 108.93 0.49 107.44 0.49L107.44 0.49Q105.51 0.49 104.26-0.61 103.02-1.71 102.31-3.74ZM102.02-6.93L102.02-12.6 101.09-12.6Q99.16-12.6 97.91-12.32 96.65-12.04 95.9-11.52 95.16-11.01 94.87-10.29 94.57-9.57 94.57-8.67L94.57-8.67Q94.57-7.74 94.84-7.09 95.11-6.45 95.56-6.02 96.01-5.59 96.61-5.4 97.21-5.2 97.87-5.2L97.87-5.2Q98.77-5.2 99.81-5.58 100.85-5.96 102.02-6.93L102.02-6.93ZM126.7-18.26L126.7-5.52Q127.72-5.05 128.68-4.91 129.63-4.76 130.24-4.76L130.24-4.76Q131.85-4.76 133.07-5.46 134.29-6.15 135.11-7.32 135.93-8.5 136.34-10.01 136.76-11.52 136.76-13.13L136.76-13.13Q136.76-14.84 136.39-16.24 136.03-17.63 135.35-18.62 134.68-19.6 133.75-20.13 132.83-20.65 131.7-20.65L131.7-20.65Q130.41-20.65 129.08-20.01 127.75-19.36 126.7-18.26L126.7-18.26ZM125.43-25.88L126.41-21.85Q127.31-22.68 128.31-23.49 129.31-24.29 130.41-24.93 131.51-25.56 132.75-25.96 134-26.37 135.41-26.37L135.41-26.37Q137.76-26.37 139.63-25.33 141.49-24.29 142.79-22.57 144.08-20.85 144.77-18.64 145.45-16.43 145.45-14.09L145.45-14.09Q145.45-12.04 144.94-10.16 144.42-8.28 143.47-6.65 142.52-5.03 141.19-3.71 139.86-2.39 138.23-1.46 136.61-0.54 134.73-0.02 132.85 0.49 130.82 0.49L130.82 0.49Q130.26 0.49 129.68 0.45 129.09 0.42 128.54 0.35 127.99 0.29 127.52 0.2 127.04 0.1 126.7-0.02L126.7-0.02 126.7 13.09 118.23 13.09 118.23-25.88 125.43-25.88Z" opacity="1" transform="matrix(1,0,0,1,0,0)" fill="#0718c4" class="undefined-text-0" data-fill-palette-color="primary" id="text-0"></path></svg></g></svg></g></svg></g></svg></g></svg></g></svg></g></svg></g><g><path d="M245.816 0c68.262 0 123.6 55.338 123.6 123.6 0 68.262-55.338 123.6-123.6 123.6-49.556 0-92.3-29.164-112.006-71.265l4.232 0c19.425 39.928 60.386 67.447 107.774 67.447 66.154 0 119.782-53.628 119.781-119.782 0-66.154-53.628-119.782-119.781-119.782-47.388 0-88.349 27.518-107.774 67.447l-4.232 0c19.706-42.101 62.45-71.265 112.006-71.265z" fill="#0718c4" stroke="transparent" data-fill-palette-color="tertiary"></path></g></svg></g><defs></defs></svg><rect width="395.52" height="247.2" fill="none" stroke="none" visibility="hidden"></rect></g></svg></g></svg>